<?xml version="1.0" standalone="no"?>
<!DOCTYPE svg PUBLIC "-//W3C//DTD SVG 20010904//EN"
        "http://www.w3.org/TR/2001/REC-SVG-20010904/DTD/svg10.dtd">
<svg version="1.0" xmlns="http://www.w3.org/2000/svg"
     width="684.000000pt" height="423.000000pt" viewBox="0 0 684.000000 423.000000"
     preserveAspectRatio="xMidYMid meet">

    <g transform="translate(0.000000,423.000000) scale(0.100000,-0.100000)"
       fill="#000000" stroke="none">
        <path d="M1875 4194 c-11 -1 -69 -8 -130 -15 -203 -22 -429 -91 -635 -194
-590 -296 -998 -883 -1069 -1537 -7 -63 -11 -513 -11 -1263 l0 -1166 73 7
c411 39 749 338 831 736 14 66 16 177 16 770 1 717 6 840 40 966 79 287 279
531 548 666 80 40 218 83 310 96 l82 12 -2 462 c-3 496 0 468 -53 460z"/>
        <path d="M5771 4163 c-5 -10 -117 -252 -249 -538 -132 -286 -366 -794 -521
-1128 -155 -335 -281 -610 -281 -613 0 -2 92 -192 206 -422 113 -229 233 -474
266 -544 34 -71 64 -128 68 -128 3 0 70 138 147 307 78 170 428 927 778 1683
350 756 639 1381 642 1388 4 9 -104 12 -521 12 -490 0 -526 -1 -535 -17z"/>
        <path d="M2302 3700 l3 -471 82 -33 c277 -114 483 -327 593 -615 21 -53 282
-592 580 -1198 505 -1026 545 -1103 568 -1103 34 0 945 119 950 124 5 5 -25
67 -323 671 -136 275 -298 604 -360 730 -62 127 -215 437 -340 690 -125 253
-262 532 -305 620 -115 235 -248 411 -435 578 -173 154 -384 284 -601 371 -94
37 -346 106 -390 106 l-24 0 2 -470z"/>
    </g>
</svg>
